<svg xmlns="http://www.w3.org/2000/svg" xmlns:xlink="http://www.w3.org/1999/xlink" id="katman_2" data-name="katman 2" viewBox="0 0 275.19 150.23" width="275.19000244140625" height="150.22999572753906"><defs><style>      .cls-1 {        font-family: Audiowide-Regular, Audiowide;        font-size: 13.94px;      }      .cls-1, .cls-2 {        fill: #272250;      }      .cls-3 {        letter-spacing: 0em;      }      .cls-4 {        fill: url(#Adsız_degrade_8-5);      }      .cls-4, .cls-5, .cls-6, .cls-2, .cls-7, .cls-8, .cls-9, .cls-10, .cls-11, .cls-12 {        stroke-width: 0px;      }      .cls-13 {        clip-path: url(#clippath-2);      }      .cls-5 {        fill: url(#Adsız_degrade_8-6);      }      .cls-14 {        letter-spacing: -.01em;      }      .cls-6 {        fill: url(#Adsız_degrade_8-2);      }      .cls-15 {        clip-path: url(#clippath-6);      }      .cls-2 {        fill-rule: evenodd;      }      .cls-7 {        fill: none;      }      .cls-16 {        clip-path: url(#clippath-7);      }      .cls-17 {        clip-path: url(#clippath-1);      }      .cls-18 {        clip-path: url(#clippath-4);      }      .cls-8 {        fill: url(#Adsız_degrade_8-4);      }      .cls-19 {        clip-path: url(#clippath);      }      .cls-9 {        fill: url(#Adsız_degrade_8);      }      .cls-20 {        clip-path: url(#clippath-3);      }      .cls-10 {        fill: url(#Adsız_degrade_8-3);      }      .cls-21 {        clip-path: url(#clippath-5);      }      .cls-11 {        fill: url(#Adsız_degrade_8-7);      }      .cls-22 {        letter-spacing: 0em;      }      .cls-12 {        fill: url(#Adsız_degrade_8-8);      }      .cls-23 {        letter-spacing: 0em;      }    </style><clipPath id="clippath"><path class="cls-7" d="M158.79,10.03l-28.68,28.68c-5.55,5.56-10.77,10.77-16.32,16.32-12.94,12.94-12.73,9.86-12.49,20.27L168.99,7.89c-2.22-.18-3.78-.32-4.99-.32-2.36,0-3.36.54-5.22,2.45"></path></clipPath><linearGradient id="Ads&#x131;z_degrade_8" data-name="Ads&#x131;z degrade 8" x1="-106.56" y1="-233.25" x2="-106.12" y2="-233.25" gradientTransform="translate(16619.06 -36114.95) scale(155.01 -155.01)" gradientUnits="userSpaceOnUse"><stop offset="0" stop-color="#fff4aa"></stop><stop offset=".1" stop-color="#cfa545"></stop><stop offset=".15" stop-color="#ba8116"></stop><stop offset=".37" stop-color="#d5a634"></stop><stop offset=".49" stop-color="#e6bd47"></stop><stop offset=".66" stop-color="#cf9e2e"></stop><stop offset=".86" stop-color="#ba8116"></stop><stop offset=".91" stop-color="#cfa545"></stop><stop offset="1" stop-color="#fff4aa"></stop></linearGradient><clipPath id="clippath-1"><path class="cls-7" d="M142.03,43.13c1.61,3.23,30.25,29.57,34.73,35.16,1.34-8.11-.5-8.69-3.43-11.61-2.68-2.67-5.01-5.02-7.69-7.69-5.16-5.12-10.37-10.84-15.61-15.57,3.45-4.65,26.16-25.14,26.79-27.5.37-1.39.19-6.13-.06-7.63l-34.73,34.84Z"></path></clipPath><linearGradient id="Ads&#x131;z_degrade_8-2" data-name="Ads&#x131;z degrade 8" x1="-107.99" y1="-237.05" x2="-107.56" y2="-237.05" gradientTransform="translate(8832.32 -19032.29) scale(80.47 -80.47)" xlink:href="#Ads&#x131;z_degrade_8"></linearGradient><clipPath id="clippath-2"><path class="cls-7" d="M112.83,47.32l3.11-2.74c3.89-3.88,2.73-2.54,2.73-14.11,0-6.92.51-16.09-.11-22.75l-5.58-.02-.15,39.61Z"></path></clipPath><linearGradient id="Ads&#x131;z_degrade_8-3" data-name="Ads&#x131;z degrade 8" x1="-116.27" y1="-276.86" x2="-115.83" y2="-276.86" gradientTransform="translate(1718.51 -3795.86) scale(13.81 -13.81)" xlink:href="#Ads&#x131;z_degrade_8"></linearGradient><clipPath id="clippath-3"><path class="cls-7" d="M69.83,126.92c1.49.52,3.08.8,4.74.8h14.41v-5.15h-14.41c-.88,0-1.72-.12-2.53-.35l-2.22,4.69ZM23.1,98.9l-11.86,10.87-4.24,3.87v-14.74H1.85v28.82h5.15v-7.12l7.29-6.63,9.96,13.75h6.34l-12.48-17.25,12.6-11.57h-7.62ZM32.32,127.72h5.77l8.93-17.5,8.94,17.5h5.76l-2.64-5.15-12.06-23.68-14.7,28.82ZM74.57,98.9c-7.95,0-14.41,6.46-14.41,14.41,0,4.77,2.33,9.01,5.91,11.63l2.26-4.79c-1.86-1.7-3.03-4.14-3.03-6.84,0-5.11,4.16-9.26,9.26-9.26h14.41v-5.15h-14.41ZM116.78,102.85l-9.26,7.12-14.41-11.08v28.82h5.15v-18.36l9.26,7.12,9.26-7.12v18.36h5.15v-28.82l-5.15,3.95ZM124.43,127.72h5.76l8.94-17.5,8.94,17.5h5.76l-2.63-5.15-12.06-23.68-14.7,28.82ZM178.66,98.9h-22.28v5.15h18.32l-7.21,9.33-11.03,14.35h28.78v-5.15h-18.41l7.12-9.2,11.16-14.47h-6.46ZM189.24,98.9v19.64c0,1.44.34,2.79.95,4.04.88,1.8,2.35,3.29,4.16,4.2,1.24.62,2.59.95,4.03.95h14.62v-5.15l-15.11-.04c-1.83,0-3.5-1.67-3.5-3.5v-20.13h-5.15ZM215.51,127.72h5.76l8.94-17.5,8.93,17.5h5.76l-2.63-5.15-12.06-23.68-14.7,28.82ZM252.49,104.05h13.05c.91,0,1.52.41,1.85.75.29.29.78.95.78,1.91,0,1.04-.62,1.98-1.56,2.41-.33.15-.7.25-1.07.25l-13.05.04v-5.35ZM247.34,98.9v28.82h5.15v-13.22h5.15c1.85,0,3.54.94,4.37,2.46,1.92,3.54,3.68,7.17,5.52,10.75h5.76l-6.75-13.3c.77-.08,1.52-.29,2.22-.62,2.67-1.24,4.53-3.95,4.53-7.1,0-2.16-.85-4.11-2.27-5.54-1.39-1.41-3.34-2.26-5.48-2.26h-18.2Z"></path></clipPath><linearGradient id="Ads&#x131;z_degrade_8-4" data-name="Ads&#x131;z degrade 8" x1="-105.72" y1="-229.95" x2="-105.28" y2="-229.95" gradientTransform="translate(65649.97 -142675.38) scale(620.96 -620.96)" xlink:href="#Ads&#x131;z_degrade_8"></linearGradient><clipPath id="clippath-4"><path class="cls-7" d="M118.99,5.19l1.46,3.56c5.86-3.15,12.56-4.94,19.66-4.94s13.25,1.64,18.93,4.55l2.74-2.89c-6.44-3.5-13.82-5.48-21.67-5.48s-14.81,1.88-21.12,5.19"></path></clipPath><linearGradient id="Ads&#x131;z_degrade_8-5" data-name="Ads&#x131;z degrade 8" x1="-106.3" y1="-232.42" x2="-105.87" y2="-232.42" gradientTransform="translate(22216.88 -48363.76) scale(208.1 -208.1)" xlink:href="#Ads&#x131;z_degrade_8"></linearGradient><clipPath id="clippath-5"><path class="cls-7" d="M94.63,45.48c0,7.88,2.01,15.3,5.53,21.76l2.78-2.93c-2.88-5.66-4.5-12.05-4.5-18.83,0-3.54.45-6.99,1.29-10.27l-2.14-5.88c-1.91,5.02-2.96,10.47-2.96,16.16"></path></clipPath><linearGradient id="Ads&#x131;z_degrade_8-6" data-name="Ads&#x131;z degrade 8" x1="-106.3" y1="-232.15" x2="-105.87" y2="-232.15" gradientTransform="translate(22216.88 -48263.31) scale(208.1 -208.1)" xlink:href="#Ads&#x131;z_degrade_8"></linearGradient><clipPath id="clippath-6"><path class="cls-7" d="M173.78,20.96c5.03,6.88,8,15.36,8,24.52,0,8.02-2.28,15.52-6.22,21.88l2.75,2.81c4.61-7.11,7.28-15.59,7.28-24.69,0-10.26-3.4-19.73-9.14-27.34l-2.68,2.83Z"></path></clipPath><linearGradient id="Ads&#x131;z_degrade_8-7" data-name="Ads&#x131;z degrade 8" x1="-106.3" y1="-232.18" x2="-105.87" y2="-232.18" gradientTransform="translate(22216.88 -48272.75) scale(208.1 -208.1)" xlink:href="#Ads&#x131;z_degrade_8"></linearGradient><clipPath id="clippath-7"><path class="cls-7" d="M112.87,81.91c7.59,5.69,17.03,9.06,27.24,9.06,9.01,0,17.41-2.62,24.47-7.14l-2.74-2.8c-6.33,3.88-13.77,6.13-21.73,6.13-9.19,0-17.69-2.99-24.58-8.05l-2.66,2.8Z"></path></clipPath><linearGradient id="Ads&#x131;z_degrade_8-8" data-name="Ads&#x131;z degrade 8" x1="-106.3" y1="-231.92" x2="-105.87" y2="-231.92" gradientTransform="translate(22216.88 -48179.24) scale(208.1 -208.1)" xlink:href="#Ads&#x131;z_degrade_8"></linearGradient></defs><g id="katman_1" data-name="katman 1"><g><path class="cls-2" d="M101.9,83.26c7.25.1,7.3.87,10.59-2.5,1.27-1.3,2.22-2.21,3.49-3.5,3.88-3.92,19.85-20.36,21.86-21.54,4.92,4.44,9.82,9.74,14.65,14.56,2.6,2.59,4.86,4.86,7.46,7.46,6.69,6.69,4.09,5.66,13.29,5.61-.87-1.57-2.97-3.36-4.36-4.75-1.6-1.6-2.84-2.83-4.43-4.43-3.06-3.07-5.79-5.79-8.86-8.86l-17.85-17.72-35.83,35.67Z"></path><g class="cls-19"><rect class="cls-9" x="100.85" y="7.57" width="68.14" height="67.72"></rect></g><g class="cls-17"><rect class="cls-6" x="142.03" y="8.29" width="36.07" height="70"></rect></g><path class="cls-2" d="M101.27,58.93c1.51-.92,2.43-2.15,3.72-3.39,1.8-1.72,2.16-1.51,2.15-5-.02-10.44.55-35.57-.15-42.84l-5.6.02-.12,51.21Z"></path><g class="cls-13"><rect class="cls-10" x="112.83" y="7.71" width="7" height="39.61"></rect></g><g class="cls-20"><rect class="cls-8" x="1.85" y="98.9" width="271.43" height="28.82"></rect></g><g class="cls-18"><rect class="cls-4" x="118.99" y="0" width="42.79" height="8.76"></rect></g><g class="cls-21"><rect class="cls-5" x="94.63" y="29.33" width="8.32" height="37.92"></rect></g><g class="cls-15"><rect class="cls-11" x="173.78" y="18.14" width="11.82" height="52.04"></rect></g><g class="cls-16"><rect class="cls-12" x="112.87" y="79.1" width="51.72" height="11.86"></rect></g><text class="cls-1" transform="translate(0 146.26)"><tspan x="0" y="0">DEMİ</tspan><tspan class="cls-22" x="39.29" y="0">R</tspan><tspan x="50.74" y="0" xml:space="preserve"> ÇELİ</tspan><tspan class="cls-23" x="90.35" y="0">K</tspan><tspan x="101.62" y="0" xml:space="preserve"> İNŞ. DIŞ.</tspan><tspan class="cls-14" x="169.11" y="0"> </tspan><tspan class="cls-3" x="173.49" y="0">TİC. SAN. A.Ş.</tspan></text></g></g></svg>